<?xml version="1.0" standalone="no"?>
<!DOCTYPE svg PUBLIC "-//W3C//DTD SVG 20010904//EN"
 "http://www.w3.org/TR/2001/REC-SVG-20010904/DTD/svg10.dtd">
<svg version="1.0" xmlns="http://www.w3.org/2000/svg"
 width="512.000000pt" height="512.000000pt" viewBox="0 0 512.000000 512.000000"
 preserveAspectRatio="xMidYMid meet">

<g transform="translate(0.000000,512.000000) scale(0.100000,-0.100000)"
fill="#000000" stroke="none">
<path d="M2540 3607 c-1059 -409 -1948 -754 -1975 -768 -27 -13 -69 -43 -92
-66 -36 -36 -43 -49 -43 -82 0 -32 6 -44 38 -73 22 -20 59 -42 83 -51 82 -30
979 -307 994 -307 9 0 523 320 1143 711 620 392 1146 718 1170 725 46 14 92 5
92 -19 0 -20 -75 -90 -955 -882 -456 -411 -845 -762 -863 -779 l-32 -32 -30
-444 c-16 -245 -31 -469 -34 -497 l-5 -53 33 0 c18 0 51 10 74 23 23 12 158
136 301 275 177 172 265 251 273 246 7 -5 229 -168 493 -363 302 -223 500
-364 535 -378 128 -53 233 -5 279 127 7 19 161 735 343 1590 253 1191 331
1571 331 1625 0 126 -64 206 -171 212 -55 3 -138 -28 -1982 -740z"/>
</g>
</svg>
