<?xml version="1.0" standalone="no"?>
<!DOCTYPE svg PUBLIC "-//W3C//DTD SVG 20010904//EN"
 "http://www.w3.org/TR/2001/REC-SVG-20010904/DTD/svg10.dtd">
<svg version="1.0" xmlns="http://www.w3.org/2000/svg"
 width="512.000000pt" height="512.000000pt" viewBox="0 0 512.000000 512.000000"
 preserveAspectRatio="xMidYMid meet">

<g transform="translate(0.000000,512.000000) scale(0.100000,-0.100000)"
fill="#000000" stroke="none">
<path d="M679 5109 c-257 -27 -486 -194 -600 -435 -80 -169 -74 11 -74 -2114
0 -2137 -7 -1947 80 -2125 79 -162 198 -280 360 -355 174 -82 -14 -75 2115
-75 l1895 0 85 23 c277 76 481 284 556 567 18 67 19 149 19 1965 0 1816 -1
1898 -19 1965 -74 280 -278 490 -553 568 l-78 22 -1855 1 c-1020 1 -1889 -2
-1931 -7z m2083 -1488 c21 -7 51 -23 67 -37 52 -43 56 -73 51 -344 -10 -504
-7 -559 36 -610 52 -62 119 -32 225 101 123 152 247 369 350 609 42 97 76 161
90 172 22 16 58 18 398 18 361 1 374 0 417 -21 73 -35 72 -86 -5 -233 -61
-117 -150 -249 -345 -511 -156 -210 -216 -307 -216 -352 0 -55 46 -112 265
-328 123 -121 244 -246 269 -278 121 -152 123 -242 7 -296 -56 -26 -56 -26
-363 -29 -270 -3 -314 -2 -360 14 -122 39 -179 84 -352 275 -172 189 -236 230
-304 195 -60 -31 -95 -126 -107 -292 -8 -107 -25 -142 -80 -168 -33 -16 -62
-18 -264 -13 -206 4 -234 7 -321 31 -399 113 -760 446 -1103 1016 -165 275
-447 855 -447 918 0 81 5 82 375 82 395 0 383 3 440 -135 40 -98 144 -306 206
-411 172 -293 306 -437 376 -405 58 26 87 161 86 401 -1 178 -11 277 -39 363
-19 58 -68 95 -141 105 -42 6 -48 10 -51 33 -2 19 8 35 42 67 75 69 156 82
501 77 156 -2 275 -8 297 -14z"/>
</g>
</svg>
